# xmcd
#
# Track frame offsets:
# 150
# 14637
# 32188
# 58973
# 70354
# 83520
# 100707
# 115635
# 128332
# 147278
# 163266
# 177869
# 193138
# 210064
# 226072
# 247212
# 267559
#
# Disc length: 3732 seconds
#
#
# Revision: 0
# Processed by: cddbd v1.5.2PL0 Copyright (c) Steve Scherf et al.
# Submitted via: FreeRIP 2.942 
#
DISCID=ec0e9211
DTITLE=div - LOVE CLASSICS OF THE 70's CD 2
DYEAR=1900
DGENRE=
TTITLE0=MAC and KATIE KISSON - THE TWO OF US
TTITLE1=DOBIE GRAY - DRIFT AWAY
TTITLE2=DELEGATION - OH HONEY
TTITLE3=JIM CROCE - I'LL HAVE TO SAY I LOVE YOU
TTITLE4=10CC - DONNA
TTITLE5=WORLD GREATEST LOVE BAND - HOW YOU GONNA SEE ME NOW
TTITLE6=DETROID EMERALDS - FEEL THE NEED IN ME
TTITLE7=CHARLIE RICH - THE MOST BEAUTIFUL GIRL IN THE WORLD
TTITLE8=LOBO - I'D LOVE YOU TO WANT ME
TTITLE9=HAROLD MELVIN and THE BLUE NOTES - IF YOU DON'T KNOW ME BY NOW
TTITLE10=B.J. THOMAS - I JUST CAN'T HELP BELIEVING
TTITLE11=EDDIE HOLMAN - (HEY THERE) LONELY GIRL
TTITLE12=THE TEMPTATIONS - JUST MY IMAGINATION
TTITLE13=THE CHI-LITES - HOMELY GIRL
TTITLE14=S.O:U:L - MY CHERIE AMOUR
TTITLE15=SYREETA - WITH YOU I'M BORN AGAIN
TTITLE16=FORTUNES - HERE COMES THAT RAINY DAY FEELING AGAIN
EXTD=
EXTT0=
EXTT1=
EXTT2=
EXTT3=
EXTT4=
EXTT5=
EXTT6=
EXTT7=
EXTT8=
EXTT9=
EXTT10=
EXTT11=
EXTT12=
EXTT13=
EXTT14=
EXTT15=
EXTT16=
PLAYORDER=
